ModelForces
version=1
nRows=4
nColumns=157
inDegrees=no

This file contains the forces exerted on a model during a simulation.

A force is a generalized force, meaning that it can be either a force (N) or a torque (Nm).

Units are S.I. units (second, meters, Newtons, ...)
Angles are in degrees.

endheader
time	glut_med1_r	glut_med2_r	glut_med3_r	glut_min1_r	glut_min2_r	glut_min3_r	semimem_r	semiten_r	bifemlh_r	bifemsh_r	sar_r	add_long_r	add_brev_r	add_mag1_r	add_mag2_r	add_mag3_r	tfl_r	pect_r	grac_r	glut_max1_r	glut_max2_r	glut_max3_r	iliacus_r	psoas_r	quad_fem_r	gem_r	peri_r	rect_fem_r	vas_med_r	vas_int_r	vas_lat_r	med_gas_r	lat_gas_r	soleus_r	tib_post_r	flex_dig_r	flex_hal_r	tib_ant_r	per_brev_r	per_long_r	per_tert_r	ext_dig_r	ext_hal_r	glut_med1_l	glut_med2_l	glut_med3_l	glut_min1_l	glut_min2_l	glut_min3_l	semimem_l	semiten_l	bifemlh_l	bifemsh_l	sar_l	add_long_l	add_brev_l	add_mag1_l	add_mag2_l	add_mag3_l	tfl_l	pect_l	grac_l	glut_max1_l	glut_max2_l	glut_max3_l	iliacus_l	psoas_l	quad_fem_l	gem_l	peri_l	rect_fem_l	vas_med_l	vas_int_l	vas_lat_l	med_gas_l	lat_gas_l	soleus_l	tib_post_l	flex_dig_l	flex_hal_l	tib_ant_l	per_brev_l	per_long_l	per_tert_l	ext_dig_l	ext_hal_l	ercspn_r	ercspn_l	intobl_r	intobl_l	extobl_r	extobl_l	femur_lat_meniscii_r.femur_lat_r.force.X	femur_lat_meniscii_r.femur_lat_r.force.Y	femur_lat_meniscii_r.femur_lat_r.force.Z	femur_lat_meniscii_r.femur_lat_r.torque.X	femur_lat_meniscii_r.femur_lat_r.torque.Y	femur_lat_meniscii_r.femur_lat_r.torque.Z	femur_lat_meniscii_r.meniscus_lat_r.force.X	femur_lat_meniscii_r.meniscus_lat_r.force.Y	femur_lat_meniscii_r.meniscus_lat_r.force.Z	femur_lat_meniscii_r.meniscus_lat_r.torque.X	femur_lat_meniscii_r.meniscus_lat_r.torque.Y	femur_lat_meniscii_r.meniscus_lat_r.torque.Z	femur_med_meniscii_r.femur_med_r.force.X	femur_med_meniscii_r.femur_med_r.force.Y	femur_med_meniscii_r.femur_med_r.force.Z	femur_med_meniscii_r.femur_med_r.torque.X	femur_med_meniscii_r.femur_med_r.torque.Y	femur_med_meniscii_r.femur_med_r.torque.Z	femur_med_meniscii_r.meniscus_med_r.force.X	femur_med_meniscii_r.meniscus_med_r.force.Y	femur_med_meniscii_r.meniscus_med_r.force.Z	femur_med_meniscii_r.meniscus_med_r.torque.X	femur_med_meniscii_r.meniscus_med_r.torque.Y	femur_med_meniscii_r.meniscus_med_r.torque.Z	femur_med_tibia_r.tibia_upper_r.force.X	femur_med_tibia_r.tibia_upper_r.force.Y	femur_med_tibia_r.tibia_upper_r.force.Z	femur_med_tibia_r.tibia_upper_r.torque.X	femur_med_tibia_r.tibia_upper_r.torque.Y	femur_med_tibia_r.tibia_upper_r.torque.Z	femur_med_tibia_r.femur_med_r.force.X	femur_med_tibia_r.femur_med_r.force.Y	femur_med_tibia_r.femur_med_r.force.Z	femur_med_tibia_r.femur_med_r.torque.X	femur_med_tibia_r.femur_med_r.torque.Y	femur_med_tibia_r.femur_med_r.torque.Z	femur_lat_tibia_r.tibia_upper_r.force.X	femur_lat_tibia_r.tibia_upper_r.force.Y	femur_lat_tibia_r.tibia_upper_r.force.Z	femur_lat_tibia_r.tibia_upper_r.torque.X	femur_lat_tibia_r.tibia_upper_r.torque.Y	femur_lat_tibia_r.tibia_upper_r.torque.Z	femur_lat_tibia_r.femur_lat_r.force.X	femur_lat_tibia_r.femur_lat_r.force.Y	femur_lat_tibia_r.femur_lat_r.force.Z	femur_lat_tibia_r.femur_lat_r.torque.X	femur_lat_tibia_r.femur_lat_r.torque.Y	femur_lat_tibia_r.femur_lat_r.torque.Z	aACL_R	pACL_R	aPCL_R	pPCL_R	aMCL_R	mMCL_R	pMCL_R	aLCL_R	mLCL_R	pLCL_R	ground_prescribedForce_fx	ground_prescribedForce_fy	ground_prescribedForce_fz	ground_prescribedForce_px	ground_prescribedForce_py	ground_prescribedForce_pz
      0.58657479	      7.56207014	      5.67548248	      6.07525968	      2.66330715	      3.18367438	      3.19870213	      4.66824238	      3.96745676	      6.50207451	      6.86306292	      1.56665699	      5.62303262	      4.14780758	      2.92389927	      2.45800483	      3.99515901	      3.86479289	      2.24241771	      1.50797675	      3.66234679	      5.56556520	      4.15468510	     22.66524310	     12.98668698	      3.63276645	      2.85716731	      4.10158073	     12.11521454	     10.24529894	     10.90232668	     14.85073711	      2.88108333	      1.56014114	     11.38693794	     14.72599028	      3.01964486	      2.38517701	     13.35200229	      3.48543012	      7.27794184	      9.82493394	      8.35946455	      2.11362116	      7.56207014	      5.67548248	      6.07525968	      2.66330715	      3.18367438	      3.19870213	      8.76584341	      4.09079948	      7.70002335	      7.22814977	      1.52223031	      5.62303262	      0.00000000	      2.92389927	      2.45800483	      3.99515901	      4.10178331	      2.24241771	      1.56129735	      3.66234679	      5.56556520	      4.15468510	     22.66524310	     12.98668698	      3.63276645	      2.85716731	      4.10158073	     10.69053165	      6.60426179	      7.57587339	      8.14603633	     14.00707505	      6.50385455	     31.17445101	     42.39358486	      2.69880200	      2.89939303	      8.46937173	      4.34460188	     12.47273683	      2.00896173	      5.31690475	      1.68928258	     25.04779547	     25.04779547	      9.01630279	      9.01630279	     26.81925298	     26.81925298	     51.91437672	     62.32173420	     14.65918341	     -7.57676298	      1.26564553	     21.47376565	    -51.91437672	    -62.32173420	    -14.65918341	      1.97887300	     -1.47882668	     -0.74295280	     57.36539349	     45.44720387	     10.86836277	     -3.46209510	     -1.28413319	     23.58648414	    -57.36539349	    -45.44720387	    -10.86836277	     -0.68872707	      1.11289571	     -0.96156660	      0.00000000	      0.00000000	      0.00000000	      0.00000000	      0.00000000	      0.00000000	      0.00000000	      0.00000000	      0.00000000	      0.00000000	      0.00000000	      0.00000000	      0.00000000	      0.00000000	      0.00000000	      0.00000000	      0.00000000	      0.00000000	      0.00000000	      0.00000000	      0.00000000	      0.00000000	      0.00000000	      0.00000000	     52.35135905	     22.09709674	     19.52664893	      9.13830968	      0.33731511	      0.38899849	      0.00000000	      1.95447441	      0.00000000	      0.00000000	     95.26279000	    -55.00000000	      0.00000000	      0.03000000	     -0.03000000	      0.00000000
      0.58773644	      7.56182442	      5.67531317	      6.07507619	      2.66323106	      3.18359209	      3.19859840	      4.66801263	      3.96760272	      6.49987220	      6.87491431	      1.53502020	      5.62286292	      4.14769019	      2.92381269	      2.45793031	      3.99502481	      3.86665720	      2.24235325	      1.51044368	      3.66223763	      5.56539881	      4.15455861	     22.66493614	     12.98634186	      3.63266042	      2.85711770	      4.10138198	     12.10998961	     10.24483870	     10.90225283	     14.84649440	      1.28397140	      1.56444278	     11.40501136	     14.75527896	      3.02199055	      2.40242769	     13.34627395	      3.49391673	      7.28616627	      9.82926335	      8.34279188	      2.10000101	      7.56182442	      5.67531317	      6.07507619	      2.66323106	      3.18359209	      3.19859840	      8.76548513	      4.09066782	      7.69972541	      7.22793866	      1.52218702	      5.62286292	      0.00000000	      2.92381269	      2.45793031	      3.99502481	      4.10170033	      2.24235325	      1.56125219	      3.66223763	      5.56539881	      4.15455861	     22.66493614	     12.98634186	      3.63266042	      2.85711770	      4.10138198	     10.69012621	      6.60406029	      7.57563778	      8.14578428	     14.00616359	      6.50343058	     31.17294475	     42.39299673	      2.69799436	      2.89892317	      8.46906672	      4.34441881	     12.47228930	      2.00890819	      5.31706323	      1.68932930	     25.04707830	     25.04707830	      9.01602165	      9.01602165	     26.81900045	     26.81900045	     51.86453381	     62.26379869	     14.64586051	     -7.56984186	      1.26445885	     21.45314510	    -51.86453381	    -62.26379869	    -14.64586051	      1.97692032	     -1.47736537	     -0.74213011	     57.40404323	     45.47250770	     10.87888439	     -3.46586239	     -1.28501490	     23.60250304	    -57.40404323	    -45.47250770	    -10.87888439	     -0.68907784	      1.11371216	     -0.96232004	      0.00000000	      0.00000000	      0.00000000	      0.00000000	      0.00000000	      0.00000000	      0.00000000	      0.00000000	      0.00000000	      0.00000000	      0.00000000	      0.00000000	      0.00000000	      0.00000000	      0.00000000	      0.00000000	      0.00000000	      0.00000000	      0.00000000	      0.00000000	      0.00000000	      0.00000000	      0.00000000	      0.00000000	     52.35992448	     22.10396611	     19.50301838	      8.99936470	      0.19955087	      0.25272968	      0.00000000	      1.75126999	      0.00000000	      0.00000000	     95.26279000	    -55.00000000	      0.00000000	      0.03000000	     -0.03000000	      0.00000000
      0.58889809	      7.56158235	      5.67514638	      6.07489543	      2.66315611	      3.18351102	      3.19849621	      4.66667506	      3.96707800	      6.49612392	      6.87863808	      1.52043728	      5.62269573	      4.14757452	      2.92372739	      2.45785689	      3.99489260	      3.86819786	      2.24228974	      1.51123007	      3.66213009	      5.56523488	      4.15443400	     22.66463374	     12.98600187	      3.63255596	      2.85706883	      4.10118617	     12.10311795	     10.24112077	     10.89864365	     14.83818350	      1.39306386	      1.56782132	     11.42287267	     14.78076232	      3.02406149	      2.41984518	     13.33896998	      3.50390088	      7.29652083	      9.83487110	      8.32514509	      2.08588786	      7.56158235	      5.67514638	      6.07489543	      2.66315611	      3.18351102	      3.19849621	      8.76513217	      4.09053813	      7.69943190	      7.22773070	      1.52214437	      5.62269573	      0.00000000	      2.92372739	      2.45785689	      3.99489260	      4.10161858	      2.24228974	      1.56120769	      3.66213009	      5.56523488	      4.15443400	     22.66463374	     12.98600187	      3.63255596	      2.85706883	      4.10118617	     10.68972680	      6.60386178	      7.57540567	      8.14553598	     14.00526530	      6.50301273	     31.17146076	     42.39241732	      2.69718717	      2.89845460	      8.46876625	      4.34423845	     12.47184834	      2.00885544	      5.31722582	      1.68937720	     25.04637178	     25.04637178	      9.01574468	      9.01574468	     26.81875166	     26.81875166	     51.79636370	     62.22862621	     14.59805107	     -7.54895090	      1.26260488	     21.42473053	    -51.79636370	    -62.22862621	    -14.59805107	      1.97430010	     -1.47481836	     -0.74029860	     57.45108335	     45.50392218	     10.88974081	     -3.46963509	     -1.28608547	     23.62196126	    -57.45108335	    -45.50392218	    -10.88974081	     -0.68953734	      1.11469618	     -0.96321746	      0.00000000	      0.00000000	      0.00000000	      0.00000000	      0.00000000	      0.00000000	      0.00000000	      0.00000000	      0.00000000	      0.00000000	      0.00000000	      0.00000000	      0.00000000	      0.00000000	      0.00000000	      0.00000000	      0.00000000	      0.00000000	      0.00000000	      0.00000000	      0.00000000	      0.00000000	      0.00000000	      0.00000000	     52.35377144	     22.09416122	     19.46685980	      8.84131236	      0.05131542	      0.10541958	      0.00000000	      1.53447408	      0.00000000	      0.00000000	     95.26279000	    -55.00000000	      0.00000000	      0.03000000	     -0.03000000	      0.00000000
      0.59258048	      7.56083849	      5.67463383	      6.07433998	      2.66292579	      3.18326191	      3.19818220	      4.65519174	      3.96124146	      6.47615927	      6.86092780	      1.50605684	      5.62218201	      4.14721908	      2.92346528	      2.45763130	      3.99448633	      3.87049686	      2.24209459	      1.51055065	      3.66179963	      5.56473117	      4.15405107	     22.66370449	     12.98495713	      3.63223497	      2.85691865	      4.10058439	     12.07084322	     10.20804979	     10.86390902	     14.78560325	      1.55269698	      1.56924296	     11.44309940	     14.83730262	      3.02883740	      2.47549581	     13.32338171	      3.53913056	      7.33644915	      9.86025695	      8.26727741	      2.03993702	      7.56083849	      5.67463383	      6.07433998	      2.66292579	      3.18326191	      3.19818220	      8.76404754	      4.09013958	      7.69852997	      7.22709164	      1.52201333	      5.62218201	      0.00000000	      2.92346528	      2.45763130	      3.99448633	      4.10136737	      2.24209459	      1.56107095	      3.66179963	      5.56473117	      4.15405107	     22.66370449	     12.98495713	      3.63223497	      2.85691865	      4.10058439	     10.68849945	      6.60325179	      7.57469242	      8.14477297	     14.00250265	      6.50172766	     31.16690006	     42.39063673	      2.69463090	      2.89697733	      8.46784294	      4.34368422	     12.47049287	      2.00869335	      5.31776789	      1.68953661	     25.04420072	     25.04420072	      9.01489361	      9.01489361	     26.81798719	     26.81798719	     51.63016061	     62.02197931	     14.55532505	     -7.52617314	      1.25850215	     21.35605323	    -51.63016061	    -62.02197931	    -14.55532505	      1.96754108	     -1.46989888	     -0.73787340	     57.58855623	     45.63957224	     10.91534652	     -3.47713929	     -1.28935110	     23.67857338	    -57.58855623	    -45.63957224	    -10.91534652	     -0.69199974	      1.11776895	     -0.96508160	      0.00000000	      0.00000000	      0.00000000	      0.00000000	      0.00000000	      0.00000000	      0.00000000	      0.00000000	      0.00000000	      0.00000000	      0.00000000	      0.00000000	      0.00000000	      0.00000000	      0.00000000	      0.00000000	      0.00000000	      0.00000000	      0.00000000	      0.00000000	      0.00000000	      0.00000000	      0.00000000	      0.00000000	     52.40827247	     22.13900209	     19.48219135	      8.77204554	     -0.05318257	      0.00408201	      0.00000000	      1.32748687	      0.00000000	      0.00000000	     95.26279000	    -55.00000000	      0.00000000	      0.03000000	     -0.03000000	      0.00000000
